<svg width="95" height="72" viewBox="0 0 95 72" fill="none" xmlns="http://www.w3.org/2000/svg">
<g clip-path="url(#clip0_7163_14680)">
<path fill-rule="evenodd" clip-rule="evenodd" d="M33.38 48.5457H33.4053L33.5425 51.7332H31.4148L33.38 48.5457ZM34.3516 47.1796H33.2744L28.2478 54.9913H29.3865L30.9054 52.5542H33.5851L33.7065 54.9913H34.7585L34.3516 47.1796Z" fill="#58595B"/>
<path fill-rule="evenodd" clip-rule="evenodd" d="M60.8266 51.3949C60.5617 53.0432 59.3346 54.366 58.1407 54.366C57.2669 54.366 56.8048 53.7423 56.9704 52.7177C57.1707 51.4703 58.1659 49.7883 59.6769 49.7883C60.5222 49.7883 60.9923 50.3687 60.8266 51.3949ZM61.6689 51.5312C61.9023 50.0801 61.161 49.0892 59.7999 49.0892C57.7527 49.0892 56.371 51.079 56.125 52.6071C55.8931 54.0501 56.6675 55.0667 58.0098 55.0667C59.6532 55.0667 61.3314 53.6236 61.6689 51.5312Z" fill="#58595B"/>
<path fill-rule="evenodd" clip-rule="evenodd" d="M64.839 49.8573H65.3358C66.096 49.8573 66.443 50.1555 66.3547 50.7023C66.279 51.172 65.88 51.7268 64.7065 51.7268H64.2554L64.839 49.8573ZM64.1813 49.1646L62.3423 54.9897H63.2255L64.0346 52.4195H64.3722C64.9541 52.4195 65.1497 52.6071 65.5141 53.606L66.0235 54.9897H66.943L66.1481 52.8123C66.0519 52.5397 65.8957 52.2832 65.7159 52.171C66.5534 51.9834 67.148 51.4446 67.26 50.7455C67.3389 50.2581 67.2237 49.8653 66.9225 49.5751C66.6039 49.2768 66.1623 49.1646 65.3358 49.1646H64.1813Z" fill="#58595B"/>
<path fill-rule="evenodd" clip-rule="evenodd" d="M50.3255 38.1189H50.3507L50.2498 41.4908H48.3098L50.3255 38.1189ZM51.8096 36.5219H49.9201L44.5781 44.2358H46.5417L47.619 42.5731H50.2214L50.2119 44.2358H52.0415L51.8112 36.5219H51.8096Z" fill="#58595B"/>
<path fill-rule="evenodd" clip-rule="evenodd" d="M56.7086 37.896H57.5808C58.464 37.896 58.9198 38.2648 58.8236 38.8677C58.7337 39.4256 58.1423 39.9724 56.9405 39.9724H56.0572L56.7102 37.896H56.7086ZM55.3301 36.6229L52.9375 44.2358H54.7166L55.6787 41.1541H56.0588C56.931 41.1541 57.0998 41.3224 57.5903 42.6949L58.1391 44.2358H60.1028L59.2037 41.8131C59.0397 41.3882 58.8899 41.098 58.464 40.92L58.4672 40.8975C59.7779 40.6859 60.5034 39.8377 60.6532 38.911C60.8046 37.973 60.322 36.6229 58.1991 36.6229H55.327H55.3301Z" fill="#58595B"/>
<path fill-rule="evenodd" clip-rule="evenodd" d="M52.7403 24.7162H50.9596L49.4108 29.6835H49.3871L46.8115 24.7162H45.0324L42.6272 32.3291H44.4063L46.0229 27.171H46.0482L48.6537 32.3291H50.3476L52.7403 24.7162Z" fill="#58595B"/>
<path fill-rule="evenodd" clip-rule="evenodd" d="M60.8156 24.7162H55.5855L53.1819 32.3291H59.3062L59.7068 31.056H55.3632L55.9909 29.0582H59.0223L59.4245 27.7851H56.3931L56.964 25.9877H60.4134L60.8156 24.7162Z" fill="#58595B"/>
<path fill-rule="evenodd" clip-rule="evenodd" d="M65.2806 25.9877H66.1512C67.0345 25.9877 67.4903 26.3565 67.3941 26.9593C67.3042 27.5173 66.7127 28.0641 65.5093 28.0641H64.6261L65.2791 25.9877H65.2806ZM63.9021 24.7146L61.5095 32.3275H63.2886L64.2507 29.2458H64.6308C65.503 29.2458 65.6718 29.4125 66.1623 30.7866L66.7112 32.3275H68.6748L67.7758 29.9048C67.6117 29.4799 67.4619 29.1896 67.0361 29.0117L67.0392 28.9892C68.3499 28.7776 69.0754 27.9294 69.2252 27.0026C69.3766 26.0647 68.894 24.7146 66.7711 24.7146H63.899H63.9021Z" fill="#58595B"/>
<path fill-rule="evenodd" clip-rule="evenodd" d="M79.8951 24.8942C79.2611 24.7162 78.4299 24.6152 77.5104 24.6152C73.1163 24.6152 71.088 27.0716 70.7788 28.9908C70.5107 30.6535 71.4649 32.4285 74.9506 32.4285C75.8464 32.4285 77.0908 32.3275 77.5892 32.2056L78.8163 28.3206H75.5026L75.1241 29.5263H76.6587L76.2328 30.8764C75.7234 30.9886 75.4111 31.0223 74.9569 31.0223C73.4601 31.0223 72.4034 30.3409 72.6305 28.9347C72.9112 27.1934 74.8307 26.0213 77.2848 26.0213C78.0466 26.0213 78.6712 26.0999 79.4614 26.3003L79.8967 24.8942H79.8951Z" fill="#58595B"/>
<path fill-rule="evenodd" clip-rule="evenodd" d="M88.0777 24.7162H86.1756L83.764 27.652L83.1568 24.7162H81.3777L82.4328 29.1367L81.4266 32.3291H83.2072L84.2119 29.1367L88.0777 24.7162Z" fill="#58595B"/>
<path fill-rule="evenodd" clip-rule="evenodd" d="M42.6634 23.0903H36.2489L33.2996 32.4284H40.8118L41.3055 30.8684H35.9745L36.7458 28.4168H40.4648L40.9569 26.8551H37.2394L37.9397 24.6504H42.1714L42.6634 23.0903Z" fill="#58595B"/>
<path fill-rule="evenodd" clip-rule="evenodd" d="M42.3354 49.1662H41.4521L40.397 52.5141C40.1809 53.2147 40.0011 53.6332 39.6242 53.9315C39.2582 54.2217 38.774 54.3676 38.3245 54.3676C37.4886 54.3676 36.8782 53.9058 37.1684 52.9758L38.3734 49.1662H37.5281L36.342 52.9149C35.9351 54.2137 36.7 55.0667 38.1637 55.0667C39.6273 55.0667 40.7014 54.3499 41.2014 52.761L42.3338 49.1662H42.3354Z" fill="#58595B"/>
<path fill-rule="evenodd" clip-rule="evenodd" d="M48.0985 49.1662H43.6098L43.3811 49.8909H45.1839L43.5735 54.9897H44.4568L46.0655 49.8909H47.8683L48.0985 49.1662Z" fill="#58595B"/>
<path fill-rule="evenodd" clip-rule="evenodd" d="M55.3047 49.1662H54.423L53.6313 51.6851H50.1677L50.9579 49.1662H50.0841L48.2451 54.9897H49.1284L49.9375 52.4114H53.4026L52.5824 54.9897H53.4657L55.3047 49.1662Z" fill="#58595B"/>
<path fill-rule="evenodd" clip-rule="evenodd" d="M71.4459 49.1662H70.5642L68.7236 54.9897H69.6069L71.4459 49.1662Z" fill="#58595B"/>
<path fill-rule="evenodd" clip-rule="evenodd" d="M77.7626 49.1662H73.2739L73.0452 49.8909H74.8479L73.2376 54.9897H74.1192L75.7296 49.8909H77.5323L77.7626 49.1662Z" fill="#58595B"/>
<path fill-rule="evenodd" clip-rule="evenodd" d="M82.9643 49.1662H81.988L80.0102 51.3003L79.2657 49.1662H78.373L79.4045 52.086L78.4866 54.9897H79.332L80.2499 52.086L82.9643 49.1662Z" fill="#58595B"/>
<path fill-rule="evenodd" clip-rule="evenodd" d="M70.5454 36.6229H68.4335L64.3722 39.8938L64.3517 39.8714L65.3784 36.6229H63.5978L61.1941 44.2374H62.9732L64.2507 40.1953L66.7538 44.2374H68.8152L66.2349 40.0622L70.5454 36.6229Z" fill="#58595B"/>
<path fill-rule="evenodd" clip-rule="evenodd" d="M77.2894 36.6229H72.061L69.6558 44.2374H75.7801L76.1822 42.9643H71.837L72.4663 40.9649H75.4977L75.8984 39.6934H72.867L73.4395 37.896H76.8888L77.2894 36.6229Z" fill="#58595B"/>
<path fill-rule="evenodd" clip-rule="evenodd" d="M85.7781 36.6229H78.6223L78.2217 37.896H80.8714L78.8683 44.2374H80.649L82.6521 37.896H85.3759L85.7781 36.6229Z" fill="#58595B"/>
<path fill-rule="evenodd" clip-rule="evenodd" d="M44.8038 34.8881H42.4853L38.0755 40.7629L37.3657 34.8881H34.9715L30.1248 44.2278H32.3234L35.6876 37.7357H35.7175L36.4778 44.2278H37.5171L42.3434 37.9137H42.3734L41.6731 44.2278H43.7802L44.8038 34.8881Z" fill="#58595B"/>
<path fill-rule="evenodd" clip-rule="evenodd" d="M17.6774 11.0088C14.5308 12.8575 31.2981 -3.68942 41.0895 0.764785C41.0895 0.764785 32.3927 2.36336 17.6774 11.0088Z" fill="#005BAA"/>
<path fill-rule="evenodd" clip-rule="evenodd" d="M0.0362733 54.5696C-0.429003 56.7951 3.55976 48.6002 13.2754 38.0996C22.9436 27.6488 37.9461 15.1199 56.0461 6.31894C56.7937 5.95497 56.9719 5.41302 55.4263 5.89885C34.544 12.4551 23.7606 23.9225 21.3065 25.0192C20.3365 25.4521 19.5889 25.0898 20.3365 23.0775C20.8712 21.6377 22.5241 19.0594 23.3269 17.7863C23.6912 17.2091 23.4704 17.0424 22.9373 17.5683C18.7877 21.3122 3.55503 37.7084 0.0362733 54.5696Z" fill="#EF4130"/>
<path fill-rule="evenodd" clip-rule="evenodd" d="M4.77413 30.4307C10.1082 21.7628 20.6519 11.7801 30.6766 7.46058C42.6997 2.28004 47.7278 2.56544 48.9123 2.45962C50.0968 2.3538 51.3901 2.72418 49.6473 3.42165C39.2882 7.568 29.7366 14.6967 24.0382 20.719C23.6612 21.1166 23.2653 20.9867 23.5965 20.4977C24.688 18.8863 26.762 15.5513 27.1137 14.2156C27.497 12.7598 26.8724 12.5529 24.6059 13.8485C19.8175 16.5838 11.5672 23.581 5.15266 30.8235C4.78044 31.2436 4.2158 31.3398 4.77413 30.4323V30.4307Z" fill="#005BAA"/>
<path d="M8.67928 66.3994C8.67928 67.4368 8.30548 68.5816 7.60678 69.2919C7.08472 69.8162 6.40179 70.1272 5.58953 70.1272C4.06752 70.1272 3.3562 68.9616 3.3562 67.6901C3.3562 66.6383 3.76154 65.4694 4.47917 64.7559C4.98388 64.2556 5.71097 63.9446 6.45384 63.9446C8.03893 63.9446 8.68086 65.1167 8.68086 66.3978L8.67928 66.3994ZM5.01227 65.1664C4.44605 65.7436 4.11957 66.7954 4.11957 67.6324C4.11957 68.6056 4.54384 69.5035 5.69678 69.5035C6.19833 69.5035 6.67465 69.2822 7.04214 68.9055C7.59731 68.3379 7.91906 67.2636 7.91906 66.4314C7.91906 65.5993 7.64463 64.5683 6.35921 64.5683C5.83715 64.5683 5.37503 64.8008 5.01385 65.168L5.01227 65.1664Z" fill="#58595B"/>
<path d="M13.553 65.734L12.9836 68.7788C12.8937 69.2566 12.8354 69.6735 12.7943 70.0278H12.1398L12.2502 69.2181H12.2329C11.8559 69.7777 11.3007 70.1256 10.7424 70.1256C10.1841 70.1256 9.62573 69.8595 9.62573 68.8814C9.62573 68.6762 9.65255 68.4437 9.70775 68.1583L10.1651 65.7324H10.8875L10.438 68.1262C10.3923 68.3651 10.367 68.572 10.367 68.7564C10.367 69.2005 10.5468 69.5035 11.0421 69.5035C11.5704 69.5035 12.2423 68.8766 12.419 67.9338L12.8306 65.7308H13.553V65.734Z" fill="#58595B"/>
<path d="M14.4045 70.0294L14.9203 67.262C15.0244 66.7024 15.0875 66.1316 15.1348 65.734H15.7736C15.7389 66.0338 15.7057 66.3336 15.6553 66.6671H15.6805C15.9581 66.0787 16.4092 65.6362 16.9754 65.6362C17.0416 65.6362 17.1268 65.641 17.182 65.6522L17.0416 66.3785C16.9912 66.3689 16.9265 66.3641 16.8445 66.3641C16.2183 66.3641 15.6584 67.1369 15.4755 68.1342L15.1269 70.0294H14.4045Z" fill="#58595B"/>
<path d="M23.6519 69.8354C23.3191 69.9877 22.786 70.1224 22.1236 70.1224C20.641 70.1224 19.7341 69.1652 19.7341 67.6372C19.7341 66.51 20.1821 65.4357 20.9912 64.7527C21.6 64.23 22.3491 63.9494 23.2103 63.9494C23.8648 63.9494 24.3348 64.1162 24.4863 64.238L24.2528 64.8329C24.0336 64.6982 23.6204 64.5859 23.0952 64.5859C22.48 64.5859 21.8634 64.8281 21.4075 65.2562C20.8539 65.7837 20.5038 66.6255 20.5038 67.5346C20.5038 68.604 20.988 69.4891 22.2955 69.4891C22.7387 69.4891 23.2261 69.3993 23.5526 69.2326L23.6488 69.8338L23.6519 69.8354Z" fill="#58595B"/>
<path d="M24.7307 70.0294L25.9136 63.7233H26.6376L25.4531 70.0294H24.7307Z" fill="#58595B"/>
<path d="M30.1279 69.7825C29.8077 69.9653 29.2983 70.1209 28.7305 70.1209C27.6075 70.1209 27.1233 69.3432 27.1233 68.3924C27.1233 67.0985 28.068 65.6346 29.4276 65.6346C30.232 65.6346 30.6673 66.122 30.6689 66.7361C30.6689 67.8649 29.4181 68.1615 27.8567 68.1311C27.822 68.317 27.8457 68.7179 27.9419 68.9488C28.1122 69.3352 28.4466 69.526 28.8819 69.526C29.385 69.526 29.762 69.3737 30.0206 69.231L30.1279 69.7809V69.7825ZM29.3267 66.2086C28.6358 66.2086 28.1154 66.8932 27.9387 67.5667C29.0775 67.5795 29.9686 67.4256 29.9686 66.757C29.9686 66.4042 29.7036 66.2102 29.3267 66.2102V66.2086Z" fill="#58595B"/>
<path d="M34.1308 70.0294C34.1276 69.7713 34.1702 69.364 34.2254 68.9199H34.2065C33.7506 69.8114 33.1671 70.1272 32.5709 70.1272C31.8217 70.1272 31.3564 69.5228 31.3564 68.7082C31.3564 67.2123 32.44 65.6378 34.2774 65.6378C34.6828 65.6378 35.1244 65.7067 35.4178 65.8013L34.9872 68.0396C34.8468 68.7868 34.79 69.5548 34.809 70.031H34.1339L34.1308 70.0294ZM34.6008 66.2839C34.4998 66.2502 34.3421 66.223 34.0976 66.223C33.0031 66.223 32.1104 67.3806 32.1056 68.5752C32.1025 69.0546 32.2697 69.5228 32.8264 69.5228C33.4336 69.5228 34.1434 68.7211 34.3547 67.5811L34.6008 66.2839Z" fill="#58595B"/>
<path d="M36.2805 70.0294L36.8452 66.9846C36.9382 66.5068 36.9966 66.0899 37.0439 65.734H37.6953L37.5864 66.5774H37.6038C37.9839 65.9729 38.5533 65.6362 39.1715 65.6362C39.6731 65.6362 40.2393 65.9296 40.2393 66.8291C40.2393 67.0199 40.2062 67.2925 40.1636 67.5218L39.6936 70.0278H38.9712L39.4334 67.5474C39.4633 67.3807 39.4917 67.1802 39.4917 66.9974C39.4917 66.5661 39.3277 66.2487 38.8293 66.2487C38.3309 66.2487 37.5754 66.8788 37.3846 67.9402L37.0045 70.0278H36.2821L36.2805 70.0294Z" fill="#58595B"/>
<path d="M46.7312 67.2155H44.5925L44.1856 69.3993H46.5956L46.4757 70.0294H43.3418L44.4616 64.044H47.463L47.3416 64.6741H45.0688L44.7092 66.5902H46.8511L46.7312 67.2155Z" fill="#58595B"/>
<path d="M47.7185 70.0294L48.2831 66.9846C48.3778 66.5068 48.4346 66.0899 48.4819 65.734H49.1333L49.0244 66.5774H49.0418C49.4219 65.9729 49.9913 65.6362 50.6095 65.6362C51.1111 65.6362 51.6773 65.9296 51.6773 66.8291C51.6773 67.0199 51.6442 67.2925 51.6032 67.5218L51.1332 70.0278H50.4108L50.8729 67.5474C50.9029 67.3807 50.9297 67.1802 50.9297 66.9974C50.9297 66.5661 50.7657 66.2487 50.2673 66.2487C49.7689 66.2487 49.015 66.8788 48.8226 67.9402L48.4409 70.0278H47.7185V70.0294Z" fill="#58595B"/>
<path d="M55.7875 69.7825C55.4674 69.9653 54.9579 70.1209 54.3901 70.1209C53.2672 70.1209 52.783 69.3432 52.783 68.3924C52.783 67.0985 53.7277 65.6346 55.0873 65.6346C55.8916 65.6346 56.3269 66.122 56.3285 66.7361C56.3285 67.8649 55.0778 68.1615 53.5164 68.1311C53.4817 68.317 53.5069 68.7179 53.6015 68.9488C53.7719 69.3352 54.1062 69.526 54.5415 69.526C55.0431 69.526 55.4216 69.3737 55.6803 69.231L55.7875 69.7809V69.7825ZM54.9863 66.2086C54.2955 66.2086 53.775 66.8932 53.6 67.5667C54.7387 67.5795 55.6298 67.4256 55.6298 66.757C55.6298 66.4042 55.3649 66.2102 54.9879 66.2102L54.9863 66.2086Z" fill="#58595B"/>
<path d="M57.0365 70.0294L57.5522 67.262C57.6563 66.7024 57.7194 66.1316 57.7667 65.734H58.4055C58.3724 66.0338 58.3377 66.3336 58.2872 66.6671H58.3125C58.59 66.0787 59.0411 65.6362 59.6073 65.6362C59.6736 65.6362 59.7588 65.641 59.814 65.6522L59.6736 66.3785C59.6231 66.3689 59.5584 66.3641 59.4764 66.3641C58.8503 66.3641 58.2904 67.1369 58.1074 68.1342L57.7573 70.0294H57.0349H57.0365Z" fill="#58595B"/>
<path d="M60.0317 71.0059C60.2888 71.1711 60.7083 71.2865 61.1515 71.2865C61.8628 71.2865 62.4196 70.9193 62.6704 69.7569L62.8091 69.1139H62.7871C62.4164 69.7296 61.9022 70.0262 61.3171 70.0262C60.4686 70.0262 60.0317 69.2999 60.0301 68.5383C60.0269 67.076 61.0774 65.6362 62.7129 65.6362C63.2034 65.6362 63.7365 65.7757 64.0678 65.936L63.4195 69.4859C63.2492 70.3966 63.0079 71.0235 62.5663 71.4084C62.1436 71.7803 61.5726 71.8846 61.09 71.8846C60.5758 71.8846 60.0885 71.7643 59.8235 71.5815L60.0254 71.0059H60.0317ZM63.2792 66.3737C63.1467 66.3064 62.8833 66.2278 62.5804 66.2278C61.5237 66.2278 60.795 67.3518 60.7903 68.4116C60.7872 68.8878 60.9559 69.441 61.5994 69.441C62.2429 69.441 62.8517 68.6425 63.0094 67.8039L63.2792 66.3721V66.3737Z" fill="#58595B"/>
<path d="M65.8233 65.734L66.2413 68.0444C66.3343 68.5399 66.3895 68.8558 66.4321 69.1764H66.4542C66.5662 68.9023 66.6892 68.6008 66.9037 68.1246L67.9857 65.734H68.7553L67.1687 68.9985C66.7144 69.93 66.287 70.6836 65.7129 71.2592C65.2397 71.7418 64.724 71.9471 64.4843 72L64.3076 71.3667C64.489 71.3009 64.7966 71.1823 65.082 70.953C65.3675 70.7285 65.6735 70.3822 65.899 69.9621C65.9353 69.8915 65.9321 69.8418 65.9195 69.7665L65.0726 65.7324H65.8265L65.8233 65.734Z" fill="#58595B"/>
<path d="M72.2708 64.044H75.2596L75.1382 64.6741H72.8781L72.4979 66.6928H74.5814L74.4616 67.3181H72.3797L71.8749 70.0294H71.1526L72.2724 64.044H72.2708Z" fill="#58595B"/>
<path d="M79.5513 65.734L78.9819 68.7788C78.892 69.2566 78.8336 69.6735 78.7926 70.0278H78.1381L78.2485 69.2181H78.2311C77.8542 69.7777 77.299 70.1256 76.7407 70.1256C76.1824 70.1256 75.624 69.8595 75.624 68.8814C75.624 68.6762 75.6508 68.4437 75.706 68.1583L76.1634 65.7324H76.8858L76.4363 68.1262C76.3905 68.3651 76.3653 68.572 76.3653 68.7564C76.3653 69.2005 76.5435 69.5035 77.0404 69.5035C77.5687 69.5035 78.2422 68.8766 78.4173 67.9338L78.8289 65.7308H79.5513V65.734Z" fill="#58595B"/>
<path d="M82.2578 64.5795L82.0401 65.734H83.0496L82.936 66.3112H81.925L81.5354 68.3988C81.4897 68.6377 81.4518 68.8606 81.4518 69.0834C81.4518 69.34 81.5717 69.5003 81.8525 69.5003C81.9834 69.5003 82.0985 69.4907 82.1931 69.4666L82.1584 70.0455C82.0291 70.0968 81.8099 70.124 81.5985 70.124C80.9598 70.124 80.709 69.7296 80.709 69.2903C80.709 69.0401 80.7405 68.7948 80.802 68.4838L81.2137 66.3112H80.6096L80.7184 65.734H81.3257L81.5039 64.7655L82.2562 64.5795H82.2578Z" fill="#58595B"/>
<path d="M87.5587 65.734L86.9893 68.7788C86.8994 69.2566 86.8411 69.6735 86.8001 70.0278H86.1455L86.2544 69.2181H86.237C85.8601 69.7777 85.3049 70.1256 84.7465 70.1256C84.1882 70.1256 83.6299 69.8595 83.6299 68.8814C83.6299 68.6762 83.6567 68.4437 83.7103 68.1583L84.1677 65.7324H84.8901L84.4406 68.1262C84.3964 68.3651 84.3696 68.572 84.3696 68.7564C84.3696 69.2005 84.5494 69.5035 85.0446 69.5035C85.573 69.5035 86.2449 68.8766 86.4215 67.9338L86.8332 65.7308H87.5556L87.5587 65.734Z" fill="#58595B"/>
<path d="M88.4104 70.0294L88.9262 67.262C89.0302 66.7024 89.0933 66.1316 89.1406 65.734H89.7778C89.7447 66.0338 89.71 66.3336 89.6611 66.6671H89.6864C89.964 66.0787 90.415 65.6362 90.9812 65.6362C91.0475 65.6362 91.1327 65.641 91.1879 65.6522L91.0475 66.3785C90.997 66.3689 90.9324 66.3641 90.8503 66.3641C90.2242 66.3641 89.6659 67.1369 89.4813 68.1342L89.1328 70.0294H88.4104Z" fill="#58595B"/>
<path d="M94.4575 69.7825C94.1389 69.9653 93.6278 70.1209 93.0616 70.1209C91.9387 70.1209 91.4529 69.3432 91.4529 68.3924C91.4529 67.0985 92.3976 65.6346 93.7588 65.6346C94.5616 65.6346 94.9984 66.122 95 66.7361C95 67.8649 93.7493 68.1615 92.1879 68.1311C92.1532 68.317 92.1784 68.7179 92.273 68.9488C92.4434 69.3352 92.7777 69.526 93.213 69.526C93.7146 69.526 94.0915 69.3737 94.3518 69.231L94.4575 69.7809V69.7825ZM93.6562 66.2086C92.9654 66.2086 92.4449 66.8932 92.2683 67.5667C93.407 67.5795 94.2982 67.4256 94.2982 66.757C94.2982 66.4042 94.0332 66.2102 93.6562 66.2102V66.2086Z" fill="#58595B"/>
</g>
<defs>
<clipPath id="clip0_7163_14680">
<rect width="95" height="72" fill="white"/>
</clipPath>
</defs>
</svg>
